<svg width="28" height="28" viewBox="0 0 28 28" fill="none" xmlns="http://www.w3.org/2000/svg">
<path d="M14 2.25314C11.6926 2.25314 9.43694 2.91387 7.51836 4.15176C5.59979 5.38966 4.10444 7.14912 3.22142 9.20766C2.3384 11.2662 2.10736 13.5314 2.55752 15.7167C3.00768 17.902 4.11882 19.9094 5.75044 21.4849C7.38205 23.0605 9.46085 24.1334 11.724 24.5681C13.9871 25.0028 16.3329 24.7797 18.4647 23.9271C20.5965 23.0744 22.4185 21.6304 23.7005 19.7778C24.9824 17.9251 25.6667 15.747 25.6667 13.5189C25.6667 12.0394 25.3649 10.5745 24.7786 9.20766C24.1923 7.84084 23.3329 6.59892 22.2496 5.5528C21.1662 4.50668 19.8801 3.67685 18.4647 3.1107C17.0492 2.54454 15.5321 2.25314 14 2.25314ZM14 22.5315C12.1541 22.5315 10.3496 22.0029 8.81469 21.0126C7.27983 20.0222 6.08356 18.6147 5.37714 16.9678C4.67072 15.321 4.48589 13.5089 4.84602 11.7606C5.20615 10.0123 6.09506 8.40645 7.40035 7.14601C8.70564 5.88558 10.3687 5.02722 12.1792 4.67946C13.9897 4.33171 15.8663 4.51019 17.5717 5.19233C19.2772 5.87447 20.7348 7.02964 21.7604 8.51175C22.786 9.99386 23.3333 11.7364 23.3333 13.5189C23.3333 15.9092 22.35 18.2015 20.5997 19.8917C18.8493 21.5819 16.4754 22.5315 14 22.5315Z" fill="white"/>
<path d="M18.6667 12.3923H15.1667V9.01259C15.1667 8.7138 15.0438 8.42726 14.825 8.21598C14.6062 8.00471 14.3094 7.88602 14 7.88602C13.6906 7.88602 13.3938 8.00471 13.1751 8.21598C12.9563 8.42726 12.8333 8.7138 12.8333 9.01259V13.5189C12.8333 13.8177 12.9563 14.1042 13.1751 14.3155C13.3938 14.5268 13.6906 14.6455 14 14.6455H18.6667C18.9761 14.6455 19.2728 14.5268 19.4916 14.3155C19.7104 14.1042 19.8333 13.8177 19.8333 13.5189C19.8333 13.2201 19.7104 12.9335 19.4916 12.7223C19.2728 12.511 18.9761 12.3923 18.6667 12.3923Z" fill="white"/>
</svg>
